<svg width="52" height="52" viewBox="0 0 52 52" fill="none" xmlns="http://www.w3.org/2000/svg">
<path d="M29.1035 32H22.5215V31.3066C22.7168 31.2936 23.0195 31.2676 23.4297 31.2285C23.8464 31.1829 24.1328 31.1374 24.2891 31.0918C24.4909 31.0267 24.6439 30.9225 24.748 30.7793C24.8587 30.6296 24.9141 30.4082 24.9141 30.1152V23.2598H22.4824V22.4395H23.0195C23.7227 22.4395 24.3509 22.3092 24.9043 22.0488C25.4642 21.7884 25.8646 21.5085 26.1055 21.209H26.916C26.8965 21.6322 26.877 22.127 26.8574 22.6934C26.8379 23.2598 26.8281 23.7676 26.8281 24.2168V30.0078C26.8281 30.2357 26.877 30.4408 26.9746 30.623C27.0788 30.7988 27.2253 30.929 27.4141 31.0137C27.5833 31.0853 27.86 31.1504 28.2441 31.209C28.6283 31.2676 28.9147 31.3001 29.1035 31.3066V32Z" fill="#292929">
<rect x="1" y="1" width="50" height="50" rx="25" stroke="#F1CDB3" stroke-width="2">
</svg>
